<svg width="24" height="24" viewBox="0 0 24 24" fill="none" xmlns="http://www.w3.org/2000/svg">
<g filter="url(#filter0_d_2133_4956)">
<path d="M10 11.8334C9.93333 11.8334 9.87333 11.82 9.80667 11.7934C9.62 11.72 9.5 11.5334 9.5 11.3334V7.33337C9.5 7.06004 9.72667 6.83337 10 6.83337C10.2733 6.83337 10.5 7.06004 10.5 7.33337V10.1267L10.98 9.64671C11.1733 9.45337 11.4933 9.45337 11.6867 9.64671C11.88 9.84004 11.88 10.16 11.6867 10.3534L10.3533 11.6867C10.26 11.78 10.1267 11.8334 10 11.8334Z" fill="#292D32"/>
<path d="M9.99964 11.8334C9.87297 11.8334 9.7463 11.7867 9.6463 11.6867L8.31297 10.3534C8.11964 10.16 8.11964 9.84004 8.31297 9.64671C8.5063 9.45338 8.8263 9.45338 9.01964 9.64671L10.353 10.98C10.5463 11.1734 10.5463 11.4934 10.353 11.6867C10.253 11.7867 10.1263 11.8334 9.99964 11.8334Z" fill="#292D32"/>
<path d="M13.9997 15.1667H9.99967C6.37967 15.1667 4.83301 13.62 4.83301 10V6.00004C4.83301 2.38004 6.37967 0.833374 9.99967 0.833374H13.333C13.6063 0.833374 13.833 1.06004 13.833 1.33337C13.833 1.60671 13.6063 1.83337 13.333 1.83337H9.99967C6.92634 1.83337 5.83301 2.92671 5.83301 6.00004V10C5.83301 13.0734 6.92634 14.1667 9.99967 14.1667H13.9997C17.073 14.1667 18.1663 13.0734 18.1663 10V6.66671C18.1663 6.39337 18.393 6.16671 18.6663 6.16671C18.9397 6.16671 19.1663 6.39337 19.1663 6.66671V10C19.1663 13.62 17.6197 15.1667 13.9997 15.1667Z" fill="#292D32"/>
<path d="M18.6663 7.1667H15.9997C13.7197 7.1667 12.833 6.28003 12.833 4.00003V1.33337C12.833 1.13337 12.953 0.9467 13.1397 0.873366C13.3263 0.793366 13.5397 0.840033 13.6863 0.980033L19.0197 6.31337C19.1597 6.45337 19.2063 6.67337 19.1263 6.86003C19.0463 7.0467 18.8663 7.1667 18.6663 7.1667ZM13.833 2.54003V4.00003C13.833 5.72003 14.2797 6.1667 15.9997 6.1667H17.4597L13.833 2.54003Z" fill="#292D32"/>
</g>
<defs>
<filter id="filter0_d_2133_4956" x="0" y="0" width="24" height="24" filterUnits="userSpaceOnUse" color-interpolation-filters="sRGB">
<feFlood flood-opacity="0" result="BackgroundImageFix"/>
<feColorMatrix in="SourceAlpha" type="matrix" values="0 0 0 0 0 0 0 0 0 0 0 0 0 0 0 0 0 0 127 0" result="hardAlpha"/>
<feOffset dy="4"/>
<feGaussianBlur stdDeviation="2"/>
<feComposite in2="hardAlpha" operator="out"/>
<feColorMatrix type="matrix" values="0 0 0 0 0 0 0 0 0 0 0 0 0 0 0 0 0 0 0.25 0"/>
<feBlend mode="normal" in2="BackgroundImageFix" result="effect1_dropShadow_2133_4956"/>
<feBlend mode="normal" in="SourceGraphic" in2="effect1_dropShadow_2133_4956" result="shape"/>
</filter>
</defs>
</svg>
